<svg width="111" height="112" viewBox="0 0 111 112" fill="none" xmlns="http://www.w3.org/2000/svg">
<rect width="22" height="22" rx="5" fill="#04153E"/>
<path d="M89 10C89 6.13401 92.134 3 96 3H104C107.866 3 111 6.13401 111 10V34C111 37.866 107.866 41 104 41H89V10Z" fill="#2C86D8"/>
<path d="M30 7C30 3.13401 33.134 0 37 0H104C107.866 0 111 3.13401 111 7V15C111 18.866 107.866 22 104 22H88H37C33.134 22 30 18.866 30 15V7Z" fill="#2C86D8"/>
<path d="M89 72C89 70.8954 89.8954 70 91 70H104C107.866 70 111 73.134 111 77V105C111 108.866 107.866 112 104 112H96C92.134 112 89 108.866 89 105V72Z" fill="#2C86D8"/>
<rect y="90" width="111" height="22" rx="7" fill="#2C86D8"/>
<rect y="39" width="22" height="73" rx="7" fill="#2C86D8"/>
</svg>
