<svg width="397" height="112" viewBox="0 0 397 112" fill="none" xmlns="http://www.w3.org/2000/svg">
<rect width="22" height="22" rx="5" fill="#04153E"/>
<path d="M89 10C89 6.13401 92.134 3 96 3H104C107.866 3 111 6.13401 111 10V34C111 37.866 107.866 41 104 41H89V10Z" fill="#2C86D8"/>
<path d="M30 7C30 3.13401 33.134 0 37 0H104C107.866 0 111 3.13401 111 7V15C111 18.866 107.866 22 104 22H88H37C33.134 22 30 18.866 30 15V7Z" fill="#2C86D8"/>
<path d="M89 72C89 70.8954 89.8954 70 91 70H104C107.866 70 111 73.134 111 77V105C111 108.866 107.866 112 104 112H96C92.134 112 89 108.866 89 105V72Z" fill="#2C86D8"/>
<rect y="90" width="111" height="22" rx="7" fill="#2C86D8"/>
<rect y="39" width="22" height="73" rx="7" fill="#2C86D8"/>
<path d="M162.054 91.824C156.561 91.824 151.479 90.9313 146.81 89.146C142.209 87.292 138.192 84.717 134.759 81.421C131.394 78.0563 128.751 74.1423 126.828 69.679C124.905 65.2157 123.944 60.306 123.944 54.95C123.944 49.594 124.905 44.6843 126.828 40.221C128.751 35.7577 131.429 31.878 134.862 28.582C138.295 25.2173 142.312 22.6423 146.913 20.857C151.582 19.003 156.664 18.076 162.157 18.076C167.719 18.076 172.835 19.0373 177.504 20.96C182.242 22.814 186.259 25.595 189.555 29.303L182.86 35.792C180.113 32.908 177.023 30.7793 173.59 29.406C170.157 27.964 166.483 27.243 162.569 27.243C158.518 27.243 154.741 27.9297 151.239 29.303C147.806 30.6763 144.819 32.599 142.278 35.071C139.737 37.543 137.746 40.4957 136.304 43.929C134.931 47.2937 134.244 50.9673 134.244 54.95C134.244 58.9327 134.931 62.6407 136.304 66.074C137.746 69.4387 139.737 72.357 142.278 74.829C144.819 77.301 147.806 79.2237 151.239 80.597C154.741 81.9703 158.518 82.657 162.569 82.657C166.483 82.657 170.157 81.9703 173.59 80.597C177.023 79.155 180.113 76.9577 182.86 74.005L189.555 80.494C186.259 84.202 182.242 87.0173 177.504 88.94C172.835 90.8627 167.685 91.824 162.054 91.824ZM233.414 91V79.464L232.899 77.301V57.628C232.899 53.4393 231.663 50.212 229.191 47.946C226.788 45.6113 223.149 44.444 218.273 44.444C215.046 44.444 211.887 44.9933 208.797 46.092C205.707 47.122 203.098 48.5297 200.969 50.315L196.849 42.899C199.665 40.633 203.029 38.9163 206.943 37.749C210.926 36.513 215.08 35.895 219.406 35.895C226.891 35.895 232.659 37.7147 236.71 41.354C240.762 44.9933 242.787 50.5553 242.787 58.04V91H233.414ZM215.492 91.618C211.441 91.618 207.87 90.9313 204.78 89.558C201.759 88.1847 199.424 86.2963 197.776 83.893C196.128 81.421 195.304 78.64 195.304 75.55C195.304 72.5973 195.991 69.9193 197.364 67.516C198.806 65.1127 201.107 63.19 204.265 61.748C207.493 60.306 211.819 59.585 217.243 59.585H234.547V66.692H217.655C212.711 66.692 209.381 67.516 207.664 69.164C205.948 70.812 205.089 72.8033 205.089 75.138C205.089 77.816 206.154 79.979 208.282 81.627C210.411 83.2063 213.364 83.996 217.14 83.996C220.848 83.996 224.076 83.172 226.822 81.524C229.638 79.876 231.663 77.4727 232.899 74.314L234.856 81.112C233.552 84.3393 231.251 86.9143 227.955 88.837C224.659 90.691 220.505 91.618 215.492 91.618ZM258.511 91V36.41H267.987V51.242L267.06 47.534C268.571 43.7573 271.111 40.8733 274.682 38.882C278.253 36.8907 282.647 35.895 287.866 35.895V45.474C287.454 45.4053 287.042 45.371 286.63 45.371C286.287 45.371 285.943 45.371 285.6 45.371C280.313 45.371 276.124 46.9503 273.034 50.109C269.944 53.2677 268.399 57.834 268.399 63.808V91H258.511ZM321.283 91.618C315.446 91.618 310.296 90.4163 305.833 88.013C301.438 85.6097 298.005 82.3137 295.533 78.125C293.13 73.9363 291.928 69.1297 291.928 63.705C291.928 58.2803 293.095 53.4737 295.43 49.285C297.833 45.0963 301.095 41.8347 305.215 39.5C309.404 37.0967 314.107 35.895 319.326 35.895C324.613 35.895 329.283 37.0623 333.334 39.397C337.385 41.7317 340.544 45.0277 342.81 49.285C345.145 53.4737 346.312 58.3833 346.312 64.014C346.312 64.426 346.278 64.9067 346.209 65.456C346.209 66.0053 346.175 66.5203 346.106 67.001H299.653V59.894H340.956L336.939 62.366C337.008 58.864 336.287 55.7397 334.776 52.993C333.265 50.2463 331.171 48.1177 328.493 46.607C325.884 45.0277 322.828 44.238 319.326 44.238C315.893 44.238 312.837 45.0277 310.159 46.607C307.481 48.1177 305.387 50.2807 303.876 53.096C302.365 55.8427 301.61 59.0013 301.61 62.572V64.22C301.61 67.8593 302.434 71.121 304.082 74.005C305.799 76.8203 308.168 79.0177 311.189 80.597C314.21 82.1763 317.678 82.966 321.592 82.966C324.819 82.966 327.738 82.4167 330.347 81.318C333.025 80.2193 335.36 78.5713 337.351 76.374L342.81 82.76C340.338 85.644 337.248 87.8413 333.54 89.352C329.901 90.8627 325.815 91.618 321.283 91.618ZM373.124 91.618C368.592 91.618 364.266 91 360.146 89.764C356.094 88.528 352.901 87.0173 350.567 85.232L354.687 77.404C357.021 78.9833 359.905 80.3223 363.339 81.421C366.772 82.5197 370.274 83.069 373.845 83.069C378.445 83.069 381.741 82.4167 383.733 81.112C385.793 79.8073 386.823 77.9877 386.823 75.653C386.823 73.9363 386.205 72.5973 384.969 71.636C383.733 70.6747 382.085 69.9537 380.025 69.473C378.033 68.9923 375.802 68.5803 373.33 68.237C370.858 67.825 368.386 67.3443 365.914 66.795C363.442 66.177 361.176 65.353 359.116 64.323C357.056 63.2243 355.408 61.748 354.172 59.894C352.936 57.9713 352.318 55.4307 352.318 52.272C352.318 48.976 353.245 46.092 355.099 43.62C356.953 41.148 359.562 39.2597 362.927 37.955C366.36 36.5817 370.411 35.895 375.081 35.895C378.651 35.895 382.256 36.3413 385.896 37.234C389.604 38.058 392.625 39.2597 394.96 40.839L390.737 48.667C388.265 47.019 385.69 45.886 383.012 45.268C380.334 44.65 377.656 44.341 374.978 44.341C370.652 44.341 367.424 45.062 365.296 46.504C363.167 47.8773 362.103 49.6627 362.103 51.86C362.103 53.714 362.721 55.156 363.957 56.186C365.261 57.1473 366.909 57.9027 368.901 58.452C370.961 59.0013 373.227 59.482 375.699 59.894C378.171 60.2373 380.643 60.718 383.115 61.336C385.587 61.8853 387.818 62.675 389.81 63.705C391.87 64.735 393.518 66.177 394.754 68.031C396.058 69.885 396.711 72.357 396.711 75.447C396.711 78.743 395.749 81.5927 393.827 83.996C391.904 86.3993 389.192 88.2877 385.69 89.661C382.188 90.9657 377.999 91.618 373.124 91.618Z" fill="white"/>
</svg>
